<svg version="1.2" xmlns="http://www.w3.org/2000/svg" viewBox="0 0 400 400" width="400" height="400">
	<defs>
		<clipPath clipPathUnits="userSpaceOnUse" id="cp1">
			<path d="m260.3 94h101.7l15.5 9.95 0.74 17.27c0.4 9.51 1 22.68 1.94 41.28l-3.34 2.14c-1.84 1.17-10.32 6.51-18.84 11.86-8.52 5.35-16.63 10.43-20.5 12.83l5.5 1.73c3.02 0.94 9.1 2.72 13.5 3.94 4.4 1.22 10.02 2.85 12.5 3.62 2.48 0.77 5.29 1.4 6.25 1.39 0.96 0 1.98 0.67 2.25 1.49 0.27 0.82 0.52 22.76 0.57 96l-24.28 14.14c-13.36 7.78-29.69 17.18-36.29 20.88-6.6 3.71-14.25 8.22-17 10.02-2.75 1.8-9.95 6.16-16 9.69-6.05 3.52-12.35 6.86-14 7.42-1.65 0.57-13.7 7.29-26.77 14.94-13.07 7.65-27.47 16.05-32 18.67-4.53 2.62-8.68 5.18-9.23 5.69-0.63 0.59-3.04-0.22-6.5-2.18-3.03-1.7-12.25-7.02-20.5-11.8-8.25-4.79-18.6-10.63-23-12.98-4.4-2.35-9.35-5.27-11-6.48-1.65-1.2-6.95-4.18-20.56-11.01l0.03-13.75c0.02-10.33 0.34-13.75 1.28-13.73 0.69 0.01 4.17 1.87 7.75 4.14 3.57 2.27 7.62 4.9 9 5.84 1.37 0.94 10.37 6.34 20 12 9.62 5.65 18.62 10.7 20 11.22 1.37 0.52 6.44 3.38 11.25 6.36 4.81 2.98 8.97 5.42 9.25 5.42 0.27 0 4.21-2.2 8.75-4.88 4.54-2.69 10.5-5.97 13.25-7.3 2.75-1.32 10.85-5.72 18-9.78 7.15-4.06 17.5-9.94 23-13.07 5.5-3.14 12.7-7.17 16-8.98 3.3-1.8 9.53-5.35 13.85-7.88 4.31-2.54 9.26-5.44 11-6.45 1.73-1.02 8.77-5.02 15.65-8.9 6.87-3.87 16.44-9.23 21.25-11.9 4.81-2.67 8.98-5.31 9.25-5.86 0.27-0.55-0.74-2.36-2.25-4.02-1.53-1.68-3.75-3.01-5-3-1.24 0.01-4.39 1.2-7 2.64-2.61 1.44-11.05 6.23-18.75 10.65-7.7 4.41-15.91 9.31-18.25 10.88-2.34 1.57-4.48 2.85-4.75 2.85-0.27 0-7.48 4.05-16 9-8.52 4.95-15.73 9-16 9-0.27 0-4.21 2.2-8.75 4.89-4.54 2.68-13.43 7.81-19.75 11.38-6.33 3.57-16 9.24-21.5 12.59-5.5 3.36-10.79 6.11-11.75 6.12-0.96 0.01-2.99-0.81-4.5-1.82-1.51-1.02-11.3-6.9-21.75-13.07-10.45-6.17-22.15-13.19-26-15.6-3.85-2.4-11.05-6.82-25-15.25l-1.56-43.74 8.78-9.32c4.83-5.13 9.68-10.58 10.78-12.11 1.1-1.53 6.5-7.34 22-23.06l26-0.51 0.5 85.5 10.5 5.33 10-5.72c5.5-3.15 18.32-10.55 28.5-16.45 10.17-5.9 19.85-11.44 21.5-12.3 1.65-0.87 6.37-3.3 10.5-5.41 4.12-2.11 12.23-6.61 18-10 5.77-3.39 14.32-8.45 19-11.24 4.67-2.78 9.34-5.66 10.37-6.38 1.75-1.24 1.82-2.23 0.13-29.33l-10-5.57-66.5 0.28c-65.85 0.29-66.5 0.27-66.76-1.71-0.2-1.45 4.8-6.86 36.76-37.5l92.5-0.02 17.5-15.98-0.5-20.5-50.75-0.25c-39.82-0.2-50.74-0.52-50.72-1.5 0.02-0.69 8.23-9.52 18.25-19.64 10.02-10.11 19.3-19.45 20.62-20.75zm-61.3-92.9c0.27-0.03 3.42 1.59 7 3.59 3.57 2 9.42 5.53 13 7.85 3.57 2.31 13.92 8.39 23 13.5 9.07 5.11 20.55 11.39 25.5 13.97 4.95 2.58 14.17 7.75 20.5 11.49 6.32 3.74 18.58 10.9 27.24 15.9 8.66 5.01 15.75 9.44 15.75 9.85 0.01 0.42-9.44 0.75-41.99 0.75l-13.75-7.37c-7.56-4.06-17.13-9.18-21.25-11.37-4.13-2.19-13.13-6.99-20-10.66-6.88-3.68-13.18-7.04-14-7.48-0.83-0.44-4.5-2.33-14.81-7.62l-12.35 6.34c-6.79 3.48-21.34 11.5-32.34 17.82-11 6.32-24.05 13.85-29 16.73-4.95 2.89-15.75 9.01-24 13.61-8.25 4.59-21.98 12.36-30.5 17.27-8.53 4.9-16.72 10.34-18.22 12.07-1.49 1.74-3.37 4.96-4.18 7.16-1.22 3.34-1.55 16.81-2.55 158l3.72 2.49c2.05 1.37 3.95 2.75 4.23 3.06 0.27 0.31 9.63 6.16 41.08 25.45l-0.08 28.5h-2.5c-1.42 0-10.53-4.86-21.06-11.25-10.21-6.18-26.74-16.2-54.94-33.25l-0.5-196.5 6.75-3.88c3.71-2.13 11.02-6.23 16.25-9.11 5.22-2.88 13.32-7.59 18-10.47 4.67-2.89 14.57-8.64 22-12.79 7.42-4.15 15.75-8.78 18.5-10.29 2.75-1.51 9.05-5.07 14-7.91 4.95-2.85 10.57-5.72 12.5-6.4 1.92-0.67 6.2-2.96 9.5-5.08 3.3-2.12 12.3-7.35 20-11.62 7.7-4.27 15.69-8.82 17.75-10.11 2.06-1.28 4.09-2.36 4.5-2.38 0.41-0.03 4.35-2.24 8.75-4.93 4.4-2.69 8.22-4.91 8.5-4.93zm-79.5 93.06l61.25-0.08c33.69-0.04 61.23 0.26 61.21 0.67-0.02 0.42-1.68 2.55-3.69 4.75-2 2.2-11.1 11.77-36.77 38.52l-101.5-0.02-0.01 35.5 12.75 0.81c7.02 0.44 27.83 0.75 46.26 0.69 18.42-0.06 33.61 0.14 33.75 0.45 0.14 0.3-2.32 3.37-5.47 6.8-3.14 3.44-11.35 11.99-30.78 31.75h-56.5l-0.14 32.75c-0.07 18.02-0.23 35.68-0.34 39.25-0.11 3.58-0.27 7.97-0.36 9.75-0.12 2.36-0.64 3.26-1.91 3.28-0.96 0.01-7.38-3.65-14.25-8.15-6.88-4.49-14.19-9-20-11.88v-153l4-2.5c2.2-1.37 5.46-3.11 7.25-3.86 1.79-0.74 10.45-5.41 19.25-10.36 8.8-4.95 18.25-10.38 21-12.06z"/>
		</clipPath>
		<linearGradient id="g1" x2="1" gradientUnits="userSpaceOnUse" gradientTransform="matrix(400,-114.698,114.698,400,0,257.349)">
			<stop offset="0" stop-color="#ffa600"/>
			<stop offset=".01" stop-color="#ffa600"/>
			<stop offset="1" stop-color="#ffd04e"/>
		</linearGradient>
	</defs>
	<style>
		.s0 { fill: #000000 } 
		.s1 { fill: url(#g1) } 
	</style>
	<g clip-path="url(#cp1)">
		<path id="Path 0" fill-rule="evenodd" class="s0" d="m260.3 94h101.7l15.5 9.95 0.74 17.27c0.4 9.51 1 22.68 1.94 41.28l-3.34 2.14c-1.84 1.17-10.32 6.51-18.84 11.86-8.52 5.35-16.63 10.43-20.5 12.83l5.5 1.73c3.02 0.94 9.1 2.72 13.5 3.94 4.4 1.22 10.02 2.85 12.5 3.62 2.48 0.77 5.29 1.4 6.25 1.39 0.96 0 1.98 0.67 2.25 1.49 0.27 0.82 0.52 22.76 0.57 96l-24.28 14.14c-13.36 7.78-29.69 17.18-36.29 20.88-6.6 3.71-14.25 8.22-17 10.02-2.75 1.8-9.95 6.16-16 9.69-6.05 3.52-12.35 6.86-14 7.42-1.65 0.57-13.7 7.29-26.77 14.94-13.07 7.65-27.47 16.05-32 18.67-4.53 2.62-8.68 5.18-9.23 5.69-0.63 0.59-3.04-0.22-6.5-2.18-3.03-1.7-12.25-7.02-20.5-11.8-8.25-4.79-18.6-10.63-23-12.98-4.4-2.35-9.35-5.27-11-6.48-1.65-1.2-6.95-4.18-20.56-11.01l0.03-13.75c0.02-10.33 0.34-13.75 1.28-13.73 0.69 0.01 4.17 1.87 7.75 4.14 3.57 2.27 7.62 4.9 9 5.84 1.37 0.94 10.37 6.34 20 12 9.62 5.65 18.62 10.7 20 11.22 1.37 0.52 6.44 3.38 11.25 6.36 4.81 2.98 8.97 5.42 9.25 5.42 0.27 0 4.21-2.2 8.75-4.88 4.54-2.69 10.5-5.97 13.25-7.3 2.75-1.32 10.85-5.72 18-9.78 7.15-4.06 17.5-9.94 23-13.07 5.5-3.14 12.7-7.17 16-8.98 3.3-1.8 9.53-5.35 13.85-7.88 4.31-2.54 9.26-5.44 11-6.45 1.73-1.02 8.77-5.02 15.65-8.9 6.87-3.87 16.44-9.23 21.25-11.9 4.81-2.67 8.98-5.31 9.25-5.86 0.27-0.55-0.74-2.36-2.25-4.02-1.53-1.68-3.75-3.01-5-3-1.24 0.01-4.39 1.2-7 2.64-2.61 1.44-11.05 6.23-18.75 10.65-7.7 4.41-15.91 9.31-18.25 10.88-2.34 1.57-4.48 2.85-4.75 2.85-0.27 0-7.48 4.05-16 9-8.52 4.95-15.73 9-16 9-0.27 0-4.21 2.2-8.75 4.89-4.54 2.68-13.43 7.81-19.75 11.38-6.33 3.57-16 9.24-21.5 12.59-5.5 3.36-10.79 6.11-11.75 6.12-0.96 0.01-2.99-0.81-4.5-1.82-1.51-1.02-11.3-6.9-21.75-13.07-10.45-6.17-22.15-13.19-26-15.6-3.85-2.4-11.05-6.82-25-15.25l-1.56-43.74 8.78-9.32c4.83-5.13 9.68-10.58 10.78-12.11 1.1-1.53 6.5-7.34 22-23.06l26-0.51 0.5 85.5 10.5 5.33 10-5.72c5.5-3.15 18.32-10.55 28.5-16.45 10.17-5.9 19.85-11.44 21.5-12.3 1.65-0.87 6.37-3.3 10.5-5.41 4.12-2.11 12.23-6.61 18-10 5.77-3.39 14.32-8.45 19-11.24 4.67-2.78 9.34-5.66 10.37-6.38 1.75-1.24 1.82-2.23 0.13-29.33l-10-5.57-66.5 0.28c-65.85 0.29-66.5 0.27-66.76-1.71-0.2-1.45 4.8-6.86 36.76-37.5l92.5-0.02 17.5-15.98-0.5-20.5-50.75-0.25c-39.82-0.2-50.74-0.52-50.72-1.5 0.02-0.69 8.23-9.52 18.25-19.64 10.02-10.11 19.3-19.45 20.62-20.75zm-61.3-92.9c0.27-0.03 3.42 1.59 7 3.59 3.57 2 9.42 5.53 13 7.85 3.57 2.31 13.92 8.39 23 13.5 9.07 5.11 20.55 11.39 25.5 13.97 4.95 2.58 14.17 7.75 20.5 11.49 6.32 3.74 18.58 10.9 27.24 15.9 8.66 5.01 15.75 9.44 15.75 9.85 0.01 0.42-9.44 0.75-41.99 0.75l-13.75-7.37c-7.56-4.06-17.13-9.18-21.25-11.37-4.13-2.19-13.13-6.99-20-10.66-6.88-3.68-13.18-7.04-14-7.48-0.83-0.44-4.5-2.33-14.81-7.62l-12.35 6.34c-6.79 3.48-21.34 11.5-32.34 17.82-11 6.32-24.05 13.85-29 16.73-4.95 2.89-15.75 9.01-24 13.61-8.25 4.59-21.98 12.36-30.5 17.27-8.53 4.9-16.72 10.34-18.22 12.07-1.49 1.74-3.37 4.96-4.18 7.16-1.22 3.34-1.55 16.81-2.55 158l3.72 2.49c2.05 1.37 3.95 2.75 4.23 3.06 0.27 0.31 9.63 6.16 41.08 25.45l-0.08 28.5h-2.5c-1.42 0-10.53-4.86-21.06-11.25-10.21-6.18-26.74-16.2-54.94-33.25l-0.5-196.5 6.75-3.88c3.71-2.13 11.02-6.23 16.25-9.11 5.22-2.88 13.32-7.59 18-10.47 4.67-2.89 14.57-8.64 22-12.79 7.42-4.15 15.75-8.78 18.5-10.29 2.75-1.51 9.05-5.07 14-7.91 4.95-2.85 10.57-5.72 12.5-6.4 1.92-0.67 6.2-2.96 9.5-5.08 3.3-2.12 12.3-7.35 20-11.62 7.7-4.27 15.69-8.82 17.75-10.11 2.06-1.28 4.09-2.36 4.5-2.38 0.41-0.03 4.35-2.24 8.75-4.93 4.4-2.69 8.22-4.91 8.5-4.93zm-79.5 93.06l61.25-0.08c33.69-0.04 61.23 0.26 61.21 0.67-0.02 0.42-1.68 2.55-3.69 4.75-2 2.2-11.1 11.77-36.77 38.52l-101.5-0.02-0.01 35.5 12.75 0.81c7.02 0.44 27.83 0.75 46.26 0.69 18.42-0.06 33.61 0.14 33.75 0.45 0.14 0.3-2.32 3.37-5.47 6.8-3.14 3.44-11.35 11.99-30.78 31.75h-56.5l-0.14 32.75c-0.07 18.02-0.23 35.68-0.34 39.25-0.11 3.58-0.27 7.97-0.36 9.75-0.12 2.36-0.64 3.26-1.91 3.28-0.96 0.01-7.38-3.65-14.25-8.15-6.88-4.49-14.19-9-20-11.88v-153l4-2.5c2.2-1.37 5.46-3.11 7.25-3.86 1.79-0.74 10.45-5.41 19.25-10.36 8.8-4.95 18.25-10.38 21-12.06z"/>
		<path id="Forme 1" fill-rule="evenodd" class="s1" d="m400 0v400h-400v-400z"/>
	</g>
</svg>